<svg width="1175" height="156" viewBox="0 0 1175 156" fill="none" xmlns="http://www.w3.org/2000/svg">
  <path d="M83.3013 126.543C83.6657 127.063 85.6511 127.407 89.2573 127.576C92.8635 127.746 97.9795 127.443 104.605 126.668C111.231 125.894 116.75 125.415 121.161 125.232C125.573 125.049 133.553 124.9 145.103 124.787C156.651 124.673 168.443 124.355 180.479 123.833C192.514 123.311 202.085 122.91 209.191 122.631C216.297 122.352 222.932 122.038 229.095 121.687C235.258 121.336 248.474 120.86 268.741 120.257C289.009 119.655 308.816 119.032 328.164 118.389C347.512 117.747 361.709 117.229 370.756 116.837C379.803 116.446 386.768 116.165 391.649 115.993C396.531 115.822 400.495 115.641 403.54 115.451C406.584 115.26 415.363 115.101 429.875 114.973C444.387 114.845 455.428 114.78 462.997 114.779C470.567 114.777 476.164 114.777 479.787 114.779C483.41 114.781 487.097 114.782 490.849 114.781C494.601 114.78 504.188 114.78 519.609 114.78C535.032 114.781 546.97 114.781 555.424 114.781C563.877 114.78 570.35 114.793 574.841 114.82C579.332 114.847 583.51 114.81 587.375 114.711C591.24 114.611 600.283 114.627 614.503 114.757C628.721 114.889 639.564 115.042 647.029 115.217C654.495 115.392 659.936 115.529 663.353 115.628C666.77 115.727 670.121 115.804 673.407 115.861C676.692 115.918 685.14 116.093 698.749 116.385C712.36 116.677 722.912 116.929 730.407 117.143C737.902 117.356 743.521 117.465 747.265 117.469C751.009 117.475 761.819 117.609 779.695 117.873C797.569 118.137 812.009 118.437 823.015 118.772C834.02 119.106 843.888 119.422 852.619 119.72C861.35 120.018 868.01 120.232 872.597 120.364C877.185 120.496 880.585 120.612 882.799 120.715C885.013 120.816 901.752 121.34 933.017 122.288C964.283 123.236 988.143 123.9 1004.6 124.277C1021.05 124.655 1032.78 125.01 1039.79 125.341C1046.8 125.672 1051.73 125.884 1054.59 125.976C1057.45 126.068 1060.01 126.131 1062.26 126.165C1064.52 126.2 1066.16 126.24 1067.18 126.287C1068.2 126.334 1075.11 126.532 1087.91 126.88C1100.7 127.228 1110.61 127.408 1117.65 127.423C1124.69 127.437 1129.7 127.449 1132.68 127.46C1135.66 127.472 1137.81 127.422 1139.13 127.311C1140.46 127.2 1142.91 127.032 1146.48 126.809C1146.21 126.72 1145.94 126.631 1145.67 126.543" stroke="white" stroke-width="4.12267" stroke-linecap="round" stroke-linejoin="round" />
  <path d="M79.5653 106.108C78.6027 106.108 78.2627 106.108 78.5453 106.108C78.4333 106.108 78.1809 106.125 77.788 106.159C77.788 107.792 77.788 108.443 77.788 108.111C77.9338 108.304 77.9493 112.06 77.8347 119.379C77.7191 126.698 77.6604 132.792 77.6586 137.663C77.656 142.533 78.2355 146.701 79.3973 150.168" stroke="white" stroke-width="3.33467" stroke-linecap="round" stroke-linejoin="round" />
  <path d="M1145.99 106.395C1144.63 106.225 1144.08 106.15 1144.35 106.169C1143.22 105.848 1142.85 105.745 1143.25 105.861C1143.13 105.834 1143.01 105.806 1142.89 105.777C1143.09 107.376 1143.21 108.052 1143.25 107.805C1143.82 108.284 1144.79 112.666 1146.18 120.953C1147.57 129.241 1148.3 139.598 1148.39 152.023" stroke="white" stroke-width="6.90933" stroke-linecap="round" stroke-linejoin="round" />
  <path d="M5.23063 16.5186C5.56663 16.5186 4.71819 16.5186 2.6853 16.5186C3.7333 17.1595 13.6324 16.3364 32.3826 14.0493" stroke="#009EF1" stroke-width="4.59733" stroke-linecap="round" stroke-linejoin="round" />
  <path d="M18.1466 18.2867C17.6541 18.9258 17.4022 19.1898 17.3906 19.0787C17.0342 19.4173 16.8964 19.5453 16.9773 19.4626C17.0573 19.38 17.012 19.3488 16.8413 19.3693C16.6715 19.3906 16.5648 19.7884 16.5213 20.5626C16.4768 21.336 16.5715 22.1244 16.8053 22.928C17.0391 23.7306 17.3617 24.52 17.7733 25.296C18.1848 26.0728 18.4755 26.508 18.6453 26.6013C18.8151 26.6946 19.8279 28.9893 21.6839 33.4853C23.5399 37.9813 25.8537 45.5942 28.6253 56.324C28.7373 56.324 28.8373 56.324 28.9253 56.324" stroke="#009EF1" stroke-width="4.59733" stroke-linecap="round" stroke-linejoin="round" />
  <path d="M58.9106 30.7494C58.7702 30.4125 58.6906 29.8947 58.672 29.1961C58.6524 28.4965 58.4857 27.9885 58.172 27.6721C57.8582 27.3547 57.5 27.1062 57.0973 26.9267C56.6946 26.748 56.3409 26.6822 56.036 26.7293C55.7311 26.7756 55.1951 26.9378 54.4279 27.216C53.6608 27.4933 52.6253 28.612 51.3213 30.572C50.0164 32.5311 48.9182 34.3703 48.0266 36.0894C47.1351 37.8094 46.6097 39.8493 46.4506 42.2093C46.2915 44.5693 46.1666 46.4587 46.076 47.8774C45.9862 49.296 46.3755 50.324 47.2439 50.9614C48.1133 51.5987 49.3449 52.004 50.9386 52.1773C52.5333 52.3507 54.2195 51.5315 55.9973 49.72C57.7751 47.9084 59.1657 46.4129 60.1693 45.2333C61.1728 44.0529 62.0902 42.2894 62.9213 39.9427C63.7524 37.5952 64.2706 35.8787 64.476 34.7934C64.6804 33.7081 64.4737 32.5378 63.856 31.2827C63.6853 31.3876 63.616 31.3476 63.648 31.1627C63.68 30.9787 63.6893 30.9134 63.6759 30.9667C63.6626 31.0201 63.5315 31.2258 63.2826 31.584C63.0337 31.9431 62.8604 32.4774 62.7626 33.1867C62.6648 33.8969 62.6435 34.448 62.6986 34.84C62.7546 35.2329 62.7293 36.4298 62.6226 38.4307C62.516 40.4316 62.6013 42.8974 62.8786 45.8281C63.156 48.7578 64.7222 51.4555 67.5773 53.9213" stroke="#009EF1" stroke-width="4.59733" stroke-linecap="round" stroke-linejoin="round" />
  <path d="M68.7293 16.8653C69.9988 16.8653 71.028 15.8361 71.028 14.5666C71.028 13.2971 69.9988 12.2679 68.7293 12.2679C67.4598 12.2679 66.4307 13.2971 66.4307 14.5666C66.4307 15.8361 67.4598 16.8653 68.7293 16.8653Z" fill="#009EF1" stroke="#009EF1" stroke-width="0.133333" />
  <path d="M77.4679 30.3987C76.2528 30.3844 76.4026 31.264 77.9173 33.0373C79.4311 34.8107 80.8737 40.5374 82.2453 50.2174" stroke="#009EF1" stroke-width="4.59733" stroke-linecap="round" stroke-linejoin="round" />
  <path d="M91.176 10.7627C91.176 10.7351 91.12 10.4124 91.008 9.79466C90.6924 9.32977 90.9604 13.7133 91.812 22.9453C92.6635 32.1764 94.088 41.9733 96.0853 52.336H96.1213C96.0973 52.336 96.0733 52.336 96.0493 52.336" stroke="#009EF1" stroke-width="3.78267" stroke-linecap="round" stroke-linejoin="round" />
  <path d="M110.359 23.2413C110.46 23.0778 110.18 22.0769 109.517 20.2386H109.469C109.336 21.0626 109.065 23.7476 108.657 28.2933C108.249 32.8391 108.06 36.311 108.089 38.7093C108.118 41.1075 108.091 42.9208 108.008 44.1493C107.925 45.3768 108.212 46.3968 108.869 47.2093C109.527 48.0226 110.545 48.2267 111.923 47.8213C113.3 47.416 114.952 45.1773 116.876 41.1053C118.8 37.0324 119.752 32.1231 119.733 26.3773C119.856 26.2369 119.904 26.2 119.877 26.2666C119.851 26.3342 119.609 26.4049 119.153 26.4786C118.697 26.5515 118.369 28.0706 118.168 31.0359C117.967 34.0004 117.962 36.6666 118.153 39.0346C118.344 41.4026 118.772 43.3004 119.436 44.728C120.1 46.1555 120.782 47.2262 121.483 47.94C122.183 48.6529 122.795 49.0751 123.319 49.2067C123.841 49.3382 124.052 49.3466 123.951 49.232C123.849 49.1173 123.857 49.1639 123.975 49.3719C124.093 49.5791 124.972 49.3315 126.612 48.6293C128.252 47.9279 129.58 46.3267 130.596 43.8253C131.611 41.324 132.375 39.1586 132.888 37.3293C133.402 35.5009 133.623 33.8413 133.552 32.3506C133.481 30.86 132.834 29.2177 131.612 27.424C130.39 25.6302 128.852 24.1005 126.997 22.8347C125.143 21.5689 123.014 21.9382 120.609 23.9427" stroke="#009EF1" stroke-width="4.59733" stroke-linecap="round" stroke-linejoin="round" />
  <path d="M143.968 20.9386C143.849 20.8977 143.201 20.2471 142.024 18.9866C141.911 19.5466 142.214 22.6894 142.932 28.4147C143.651 34.14 145.377 40.112 148.109 46.3306C148.349 46.3306 148.737 46.1805 149.273 45.88" stroke="#009EF1" stroke-width="4.59733" stroke-linecap="round" stroke-linejoin="round" />
  <path d="M154.651 24.392C153.147 25.9671 153.947 33.2186 157.052 46.1466C157.076 46.1466 157.132 46.1328 157.22 46.1053C157.447 45.1613 157.545 42.5617 157.516 38.3066C157.488 34.0515 157.727 30.3346 158.233 27.156C158.741 23.9764 159.291 21.6871 159.884 20.288C160.477 18.888 160.98 17.9146 161.392 17.368C161.804 16.8204 162.25 16.4684 162.729 16.312C163.208 16.1555 163.645 16.0453 164.04 15.9813C164.435 15.9182 165.06 16.4578 165.917 17.6C166.775 18.7422 167.613 21.5524 168.431 26.0307C169.248 30.508 169.752 38.0365 169.944 48.616" stroke="#009EF1" stroke-width="4.59733" stroke-linecap="round" stroke-linejoin="round" />
  <path d="M196.04 20.856C196.04 19.6844 196.04 19.2702 196.04 19.6133C196.012 18.2328 195.999 17.8004 195.999 18.3159C195.999 18.8324 195.992 18.7319 195.98 18.0146C195.968 17.2972 196.004 16.7346 196.085 16.3266C196.167 15.9195 196.062 15.5319 195.769 15.1639C195.476 14.7968 194.696 14.4973 193.431 14.2653C192.165 14.0333 190.628 14.4839 188.821 15.6173C187.015 16.7506 185.279 18.6466 183.613 21.3053C181.948 23.963 180.666 26.7306 179.768 29.6079C178.87 32.4861 178.39 35.0702 178.328 37.36C178.266 39.6506 178.374 41.6955 178.652 43.4946C178.929 45.2938 179.629 46.5889 180.752 47.38C181.875 48.1711 183.2 48.6812 184.728 48.9106C186.256 49.1399 187.931 48.8586 189.753 48.0666C191.576 47.2737 193.935 44.9821 196.832 41.1919" stroke="#009EF1" stroke-width="4.59733" stroke-linecap="round" stroke-linejoin="round" />
  <path d="M194.095 3.25462C193.623 2.7284 193.431 2.53689 193.519 2.68C192.975 2.544 193.321 4.25111 194.557 7.80134C195.795 11.3516 196.881 16.7969 197.817 24.1374C198.754 31.4778 199.81 38.7867 200.985 46.064" stroke="#009EF1" stroke-width="4.08" stroke-linecap="round" stroke-linejoin="round" />
  <path d="M143.08 4.75598C142.189 4.75598 141.833 4.75598 142.012 4.75598M142.012 4.75598C140.786 4.75598 140.39 4.75598 140.823 4.75598M142.012 4.75598C142 4.75598 142.312 4.75598 142.948 4.75598C142.148 4.81731 141.336 4.84794 140.511 4.84794C140.655 4.78661 140.759 4.75598 140.823 4.75598M140.823 4.75598C140.759 4.75598 140.691 4.7715 140.619 4.80261C140.547 4.83283 140.479 4.87865 140.415 4.93998" stroke="#009EF1" stroke-width="4.59733" stroke-linecap="round" stroke-linejoin="round" />
  <path d="M1101.11 22.7079C1101.24 22.7719 1101.27 22.7643 1101.19 22.6852C1101.11 22.607 1100.93 22.4377 1100.64 22.1773C1100.35 21.9177 1100.09 21.6582 1099.87 21.3986C1099.66 21.1382 1099.41 20.7933 1099.14 20.3639C1098.87 19.9337 1098.7 19.6817 1098.65 19.6079C1098.59 19.5341 1098.59 19.5373 1098.63 19.6173C1098.67 19.6973 1098.64 19.5768 1098.53 19.2559C1098.42 18.9359 1097.77 18.5297 1096.57 18.0373C1095.37 17.5448 1093.63 18.2693 1091.34 20.2106C1089.06 22.1519 1086.92 24.38 1084.93 26.8946C1082.94 29.4084 1081.17 31.9315 1079.62 34.464C1078.07 36.9973 1076.93 39.6195 1076.2 42.3306C1075.47 45.0426 1075.09 47.327 1075.05 49.1839C1075.01 51.0408 1075.49 52.6239 1076.48 53.9333C1077.47 55.2426 1079.52 56.248 1082.62 56.9493C1085.72 57.6506 1088.35 57.9697 1090.51 57.9066C1092.66 57.8426 1094.61 57.6697 1096.34 57.3879C1098.07 57.1071 1099.63 56.567 1101.01 55.7679C1102.39 54.9697 1103.19 54.363 1103.42 53.9479C1103.65 53.5337 1103.82 53.0217 1103.93 52.412C1104.04 51.8031 1104.06 51.507 1103.98 51.5239C1103.91 51.5408 1103.89 51.5546 1103.94 51.5653C1103.99 51.5768 1103.9 51.4732 1103.67 51.2546C1103.45 51.0359 1102.92 50.5124 1102.09 49.6839" stroke="#F85DB3" stroke-width="4.54133" stroke-linecap="round" stroke-linejoin="round" />
  <path d="M1132.85 34.9199C1132.92 35.4657 1132.89 34.8479 1132.78 33.0666C1132.67 31.2861 1132.55 28.3502 1132.41 24.2586C1131.01 23.2969 1128.91 23.5568 1126.12 25.0386C1123.33 26.5195 1121.11 28.0293 1119.47 29.568C1117.83 31.1066 1116.71 32.5742 1116.11 33.9706C1115.52 35.3671 1115.34 36.5804 1115.59 37.6106C1115.84 38.6408 1118.22 39.6075 1122.74 40.5106C1127.26 41.4146 1130.72 42.0902 1133.13 42.5373C1135.53 42.9844 1137.15 43.3418 1137.99 43.6093C1138.82 43.8778 1139.73 44.468 1140.71 45.38C1141.69 46.2929 1141 47.704 1138.65 49.6133C1136.3 51.5226 1134.08 52.9013 1131.98 53.7493C1129.89 54.5973 1128.04 55.1875 1126.45 55.52C1124.85 55.8524 1123.26 55.9186 1121.69 55.7186C1120.13 55.5177 1117.92 52.6217 1115.08 47.0306" stroke="#F85DB3" stroke-width="4.59733" stroke-linecap="round" stroke-linejoin="round" />
  <path d="M1166.82 36.5879C1166.82 35.7364 1166.82 35.4582 1166.82 35.7533C1166.84 35.3079 1167.2 34.6987 1167.91 33.9253C1168.62 33.1511 1169.23 31.964 1169.77 30.364C1170.3 28.7622 1170.6 27.4555 1170.67 26.444C1170.74 25.4324 1170.7 24.7857 1170.54 24.5039C1170.38 24.2222 1169.96 23.9075 1169.28 23.5599C1168.6 23.2124 1167.42 23.1595 1165.74 23.4013C1164.07 23.644 1162.29 24.2773 1160.42 25.3013C1158.54 26.3253 1156.73 27.4769 1154.99 28.756C1153.25 30.0351 1151.96 31.16 1151.12 32.1306C1150.28 33.1022 1149.74 34.0097 1149.5 34.8533C1149.26 35.6969 1149.1 36.464 1149.03 37.1546C1148.96 37.8453 1149.81 38.5808 1151.6 39.3613C1153.39 40.1408 1155.71 40.7862 1158.56 41.2973C1161.41 41.8084 1163.56 42.1946 1165.01 42.4559C1166.46 42.7172 1167.72 42.9991 1168.78 43.3013C1169.84 43.6035 1170.66 43.9212 1171.24 44.2546C1171.83 44.587 1172.19 44.9932 1172.31 45.4732C1172.44 45.9532 1172.48 46.4551 1172.42 46.9786C1172.36 47.5031 1172.32 47.8662 1172.31 48.068C1172.29 48.2689 1171.49 49.0951 1169.92 50.5467C1168.34 51.9982 1166.35 53.2773 1163.95 54.384C1161.55 55.4898 1159.2 56.2893 1156.9 56.7827C1154.6 57.276 1151.69 56.2386 1148.16 53.6706" stroke="#F85DB3" stroke-width="4.59733" stroke-linecap="round" stroke-linejoin="round" />
</svg>