<svg width="236" height="146" viewBox="0 0 236 146" fill="none" xmlns="http://www.w3.org/2000/svg">
<g filter="url(#filter0_d_1_24)">
<mask id="mask0_1_24" style="mask-type:luminance" maskUnits="userSpaceOnUse" x="4" y="0" width="228" height="138">
<path d="M4 0L232 0V137.455H4L4 0Z" fill="white"/>
</mask>
<g mask="url(#mask0_1_24)">
<path fill-rule="evenodd" clip-rule="evenodd" d="M118 0C87.6 0 68.6 15.2727 61 45.8182C72.4 30.5455 85.7 24.8182 100.9 28.6364C109.572 30.8127 115.771 37.1382 122.632 44.1339C133.808 55.5333 146.745 68.7273 175 68.7273C205.4 68.7273 224.4 53.4545 232 22.9091C220.6 38.1818 207.3 43.9091 192.1 40.0909C183.428 37.9145 177.229 31.5891 170.368 24.5933C159.192 13.1939 146.255 0 118 0ZM61 68.7273C30.6 68.7273 11.6 84 4 114.545C15.4 99.2727 28.7 93.5455 43.9 97.3636C52.5724 99.5442 58.7707 105.865 65.6318 112.861C76.808 124.261 89.7449 137.455 118 137.455C148.4 137.455 167.4 122.182 175 91.6364C163.6 106.909 150.3 112.636 135.1 108.818C126.428 106.642 120.229 100.316 113.368 93.3206C102.192 81.9212 89.2551 68.7273 61 68.7273Z" fill="#38BDF8"/>
</g>
</g>
<defs>
<filter id="filter0_d_1_24" x="0" y="0" width="236" height="148" filterUnits="userSpaceOnUse" color-interpolation-filters="sRGB">
<feFlood flood-opacity="0" result="BackgroundImageFix"/>
<feColorMatrix in="SourceAlpha" type="matrix" values="0 0 0 0 0 0 0 0 0 0 0 0 0 0 0 0 0 0 127 0" result="hardAlpha"/>
<feOffset dy="4"/>
<feGaussianBlur stdDeviation="2"/>
<feComposite in2="hardAlpha" operator="out"/>
<feColorMatrix type="matrix" values="0 0 0 0 0 0 0 0 0 0 0 0 0 0 0 0 0 0 0.25 0"/>
<feBlend mode="normal" in2="BackgroundImageFix" result="effect1_dropShadow_1_24"/>
<feBlend mode="normal" in="SourceGraphic" in2="effect1_dropShadow_1_24" result="shape"/>
</filter>
</defs>
</svg>
